<svg width="72" height="72" viewBox="0 0 72 72" fill="none" xmlns="http://www.w3.org/2000/svg">
<g clipPath="url(#clip0_1339_13974)">
<path d="M0 0V71.7138H71.913V0H0ZM54.0563 54.8811H42.6674L39.4012 46.6622L35.7825 49.1259L33.9164 54.8811H25.3465L30.5458 38.8287H11.6535C14.4818 30.5817 20.5844 28.0748 26.1368 26.9703L32.993 25.6068C34.1522 25.376 34.9318 24.8344 35.2209 23.9327C35.6171 22.6993 34.2493 22.2024 32.212 22.2024C29.8317 22.2024 27.3557 22.4189 26.2037 25.2019H16.8147C19.8617 17.8201 27.3557 16.8327 32.888 16.8327C40.0203 16.8327 46.3113 18.0761 44.3718 24.0736C43.0543 28.1475 38.2592 29.7842 34.9447 30.3646L26.6222 31.8222C24.6432 32.1689 23.4796 32.65 22.6893 33.4583H40.8675L38.4016 41.0192L48.8095 33.4583H60.1603L47.8006 41.7434L54.0563 54.8804V54.8811Z" fill="#141515"/>
</g>
<defs>
<clipPath id="clip0_1339_13974">
<rect width="71.913" height="71.7138" fill="white"/>
</clipPath>
</defs>
</svg>
