<svg width="159" height="24" viewBox="0 0 159 24" fill="none" xmlns="http://www.w3.org/2000/svg">
<g clip-path="url(#clip0_1339_13858)">
<path d="M0 0.000488281V9.89298H9.69723V0.000488281H0ZM6.2797 6.40873H3.41459V3.48621H6.2797V6.40873ZM20.4973 13.0628H24.8769C26.5268 13.0628 27.3201 13.7908 27.3201 15.1267C27.3201 16.8713 26.0534 17.2844 24.5924 17.2844H20.4973V13.0628ZM13.521 22.6776H26.3684C30.3677 22.6776 34.3004 20.3276 34.3004 15.792C34.3004 12.4608 32.3969 10.8438 30.3677 10.1437C32.0505 9.22625 33.1563 7.9865 33.1563 5.70373C33.1568 3.38564 31.8911 0.0250183 25.9253 0.0250183H13.521V22.6776ZM20.4973 5.41673H24.1793C25.6069 5.41673 26.5577 5.82884 26.5577 6.97194C26.5577 8.43148 25.6379 8.84456 24.1793 8.84456H20.4973V5.41673ZM40.9883 12.5874C41.2758 10.8114 42.3522 9.82773 44.2272 9.82773C45.8428 9.82773 46.9844 11.064 46.9844 12.5898H40.9888L40.9883 12.5874ZM53.0139 15.8548C53.0139 9.44751 50.189 5.79744 43.6542 5.79744C38.4475 5.79744 34.9593 9.70115 34.9593 14.4924C34.9593 19.9793 38.9263 23.0892 44.1944 23.0892C47.9352 23.0892 51.3964 21.4393 52.6631 17.8839H46.7955C46.2873 18.6777 45.1756 19.0579 44.1581 19.0579C42.1957 19.0579 41.1163 17.7235 40.9569 15.8533L53.0129 15.8523L53.0139 15.8548ZM60.8881 1.19657H54.604V6.2115H51.8124V10.0809H54.604V17.9516C54.604 22.4553 57.5554 22.8674 60.2213 22.8674C61.5528 22.8674 62.9824 22.6781 64.2511 22.6781V17.9158C63.7738 17.983 63.2994 18.0129 62.8215 18.0129C61.2369 18.0129 60.8861 17.3467 60.8861 15.8248V10.0799H64.2502V6.2115H60.8846V1.19657H60.8881ZM65.2937 22.6776H71.5748V13.9841C71.5748 11.3496 73.0025 10.8084 74.0833 10.8084C75.9211 10.8084 76.1438 12.1429 76.1438 14.0454V22.6776H82.4284V11.38C82.4284 7.60481 79.7277 5.79695 76.7757 5.79695C74.1137 5.79695 72.715 6.71928 71.6357 7.98601H71.5734V0.0250183H65.2937V22.6776ZM89.2694 12.5874C89.5539 10.8114 90.6352 9.82773 92.5083 9.82773C94.1273 9.82773 95.2655 11.064 95.2655 12.5898H89.2699L89.2694 12.5874ZM101.295 15.8548C101.295 9.44751 98.474 5.79744 91.9353 5.79744C86.73 5.79744 83.2399 9.70115 83.2399 14.4924C83.2399 19.9793 87.2074 23.0892 92.4779 23.0892C96.2163 23.0892 99.6799 21.1366 100.944 17.5827H95.0786C94.5733 18.376 93.4596 19.0569 92.4421 19.0569C90.4777 19.0569 89.3969 17.7225 89.2404 15.8533H101.296L101.295 15.8548ZM117.1 11.0008C116.945 6.78256 112.66 5.79842 109.106 5.79842C105.806 5.79842 101.331 6.87774 101.331 11.0341C101.331 13.857 103.266 15.3808 108.057 16.2051C110.977 16.7123 111.516 16.9979 111.516 17.9516C111.516 18.9034 110.216 19.2208 109.393 19.2208C108.63 19.2208 108.029 19.027 107.71 18.7434C107.233 18.3333 106.982 18.1596 106.951 17.5856H100.956C101.048 21.8391 105.303 23.0926 109.17 23.0926C113.168 23.0926 117.55 21.8529 117.55 17.2839C117.55 14.5856 115.708 13.3493 113.614 12.682C111.519 11.9854 109.143 11.8578 108.095 11.4114C107.748 11.2544 107.367 11.0336 107.367 10.5553C107.367 9.47842 108.38 9.28856 109.27 9.28856C109.777 9.28856 110.287 9.44702 110.664 9.76444C111.08 10.049 111.363 10.4611 111.397 11.0008L117.103 10.9988L117.1 11.0008ZM135.627 0.0250183H129.347V8.01888H129.282C128.332 6.62165 126.648 5.79842 124.777 5.79842C119.255 5.79842 117.764 10.4954 117.764 14.3643C117.764 18.4903 120.016 23.0921 124.682 23.0921C127.761 23.0921 128.71 21.9166 129.505 20.8672H129.57V22.6776H135.629V0.0264901L135.627 0.0250183ZM129.569 14.4291C129.569 16.3934 129.062 18.5207 126.812 18.5207C124.558 18.5207 124.048 16.3934 124.048 14.4291C124.048 12.4937 124.556 10.3669 126.81 10.3669C129.058 10.3669 129.567 12.4937 129.567 14.4291M147.484 16.8075C147.388 18.5207 146.28 19.3753 144.85 19.3753C143.711 19.3753 142.882 18.6164 142.882 17.8574C142.882 16.7437 143.612 16.3934 145.008 16.079C145.868 15.8847 146.722 15.6649 147.484 15.2842V16.8075H147.484ZM153.515 12.2385C153.515 9.0668 153.574 5.79695 145.705 5.79695C141.803 5.79695 137.426 6.55836 137.236 11.1901H143.071C143.105 10.4945 143.489 9.50884 145.421 9.50884C146.44 9.50884 147.484 9.9234 147.484 11.0346C147.484 12.0825 146.626 12.3347 145.772 12.4946C142.565 13.0971 136.478 12.9048 136.478 18.112C136.478 21.5688 139.106 23.0916 142.282 23.0916C144.316 23.0916 146.247 22.6452 147.581 21.1233H147.645C147.612 21.5683 147.706 22.236 147.867 22.6785H154.276C153.576 21.6316 153.517 20.2353 153.517 18.9966V12.241L153.515 12.2385ZM155.348 8.77097H154.871V6.82819H154.142V6.41608H156.056V6.82819H155.35V8.77097H155.348ZM156.786 8.77097H156.338V6.41608H157.085L157.511 8.04145L157.939 6.41657H158.688V8.77146H158.234V6.89344L157.722 8.77097H157.293L156.788 6.89393L156.789 8.77293L156.786 8.77097Z" fill="#141515"/>
</g>
<defs>
<clipPath id="clip0_1339_13858">
<rect width="158.688" height="23.0923" fill="white"/>
</clipPath>
</defs>
</svg>
