<svg width="116" height="37" viewBox="0 0 116 37" fill="none" xmlns="http://www.w3.org/2000/svg">
<g clip-path="url(#clip0_1339_13861)">
<path d="M13.0677 27.0738C13.0677 29.5285 12.9233 31.2612 12.7067 32.3442C12.4179 33.6437 11.6959 34.5823 10.6852 35.0877C9.6744 35.5931 8.08606 35.8818 5.84796 35.8818H0V19.2043H5.84796C8.01386 19.2043 9.53 19.4209 10.5408 19.9263C11.5515 20.4317 12.2013 21.2259 12.5623 22.381C12.9233 23.3196 13.0677 24.9079 13.0677 27.0738ZM8.30265 27.2182C8.30265 25.2689 8.15826 23.8971 7.79727 23.2474C7.43629 22.5976 6.78652 22.2366 5.77576 22.2366H4.6928V32.7774H5.77576C6.93091 32.7774 7.65288 32.272 7.94167 31.2612C8.15826 30.6115 8.30265 29.2397 8.30265 27.2182Z" fill="#141515"/>
<path d="M27.3623 19.2043L22.4529 30.8281V35.8818H17.6879V30.8281L12.9951 19.2043H17.9767L20.0704 26.6406L22.5251 19.2043H27.3623Z" fill="#141515"/>
<path d="M42.0185 35.8818H35.232L32.4164 22.4532V35.8818H28.6621V19.2043H35.4486L38.2643 32.5608V19.2043H42.0185V35.8818Z" fill="#141515"/>
<path d="M58.9853 35.8818H54.0037L53.2818 32.633H49.0943L48.3724 35.8818H43.5352L47.7948 19.2043H54.5091L58.9853 35.8818ZM52.7042 29.6007L50.9714 22.381L49.5275 29.6007H52.7042Z" fill="#141515"/>
<path d="M78.9833 35.8818H74.7237V22.2366L72.1968 35.8818H66.9264L64.3995 22.1644V35.8818H60.4287V19.2043H67.865L69.5977 30.6837L71.4748 19.2043H78.9833V35.8818Z" fill="#141515"/>
<path d="M86.6361 35.8818H81.8711V19.2043H86.6361V35.8818Z" fill="#141515"/>
<path d="M102.014 30.2505C102.014 32.4886 101.508 34.0769 100.498 34.9433C99.487 35.8097 97.8265 36.2428 95.5161 36.2428C92.9171 36.2428 91.1843 35.6653 90.2458 34.5823C89.3072 33.4272 88.874 31.2612 88.874 27.868C88.874 24.5469 89.1628 22.3088 89.8126 21.1537C90.679 19.5653 92.4839 18.699 95.2996 18.699C97.3933 18.699 98.9816 18.9878 99.9202 19.5653C101.148 20.3595 101.797 21.8756 101.797 24.0416V24.6913H97.1045V24.1859C97.1045 23.3918 97.0323 22.8142 96.8157 22.4532C96.5991 21.9478 96.0937 21.7312 95.3718 21.7312C94.5776 21.7312 94.0722 22.2366 93.7834 23.1752C93.639 23.825 93.5668 25.1245 93.5668 27.146C93.5668 29.5285 93.639 31.1169 93.8556 31.8388C94.0722 32.7052 94.5776 33.2106 95.4439 33.2106C96.1659 33.2106 96.6713 32.9218 96.8879 32.3442C97.0323 31.911 97.1045 31.1891 97.1045 30.1783V29.7451H101.869V30.2505H102.014Z" fill="#141515"/>
<path d="M115.515 31.3336C115.515 34.5824 113.422 36.243 109.234 36.243C107.141 36.243 105.624 35.882 104.686 35.16C103.603 34.2937 103.025 32.8497 103.025 30.6838V30.395H107.646V30.8282C107.646 31.6946 107.79 32.2721 108.007 32.7053C108.296 33.0663 108.657 33.2829 109.234 33.2829C109.668 33.2829 110.029 33.1385 110.317 32.9219C110.606 32.6331 110.678 32.3443 110.678 31.9834C110.678 31.2614 110.245 30.5394 109.307 29.9618C109.234 29.8896 108.368 29.4565 106.78 28.5901C105.552 27.9403 104.758 27.3627 104.253 26.8574C103.531 26.0632 103.17 25.0524 103.17 23.7529C103.17 20.4318 105.264 18.8435 109.451 18.8435C111.4 18.8435 112.772 19.2045 113.638 19.9265C114.577 20.7206 115.082 22.0202 115.082 23.7529V24.1139H110.462V23.6807C110.462 23.1031 110.389 22.6699 110.245 22.4534C110.028 22.0924 109.668 21.8758 109.162 21.8758C108.296 21.8758 107.79 22.2368 107.79 23.0309C107.79 23.6085 108.151 24.1861 108.946 24.6915C109.595 25.0524 110.245 25.4134 110.895 25.7022C112.7 26.6408 113.855 27.5071 114.36 28.0847C115.227 28.8067 115.515 29.9618 115.515 31.3336Z" fill="#141515"/>
<path d="M9.74659 11.6237C9.74659 14.8726 8.15826 16.5331 4.98159 16.5331C2.81568 16.5331 1.44394 15.8111 0.72197 14.295C0.216591 13.212 0 11.1905 0 8.30265C0 5.48697 0.216591 3.53765 0.72197 2.4547C1.44394 0.866364 2.88788 0 5.12599 0C6.71432 0 7.86947 0.360985 8.59144 1.15515C9.31341 1.87712 9.67439 3.10447 9.67439 4.62061V4.98159H7.1475V4.6928C7.1475 2.81568 6.42553 1.87712 5.05379 1.87712C3.97083 1.87712 3.24886 2.4547 2.88788 3.60985C2.67129 4.47621 2.52689 5.99235 2.52689 8.15826C2.52689 10.6852 2.67129 12.3457 2.88788 13.1398C3.24886 14.1506 3.89864 14.7282 4.98159 14.7282C5.84796 14.7282 6.49773 14.4394 6.93091 13.7896C7.2197 13.3564 7.36409 12.6345 7.36409 11.6237V11.2627H9.81879V11.6237H9.74659Z" fill="#141515"/>
<path d="M25.6295 16.2443C25.5573 15.9556 25.5573 15.5946 25.4851 15.2336C25.4851 14.8726 25.4129 14.5116 25.4129 14.0784V12.0569C25.3407 10.8296 25.1963 10.1076 24.9797 9.74662C24.6909 9.31344 24.0412 9.09685 22.9582 9.09685H21.5143V16.1722H19.0596V0.288818H23.7524C25.2685 0.288818 26.3515 0.577606 27.0734 1.08299C27.8676 1.73276 28.3008 2.81571 28.3008 4.33185C28.3008 6.49776 27.4344 7.7973 25.7017 8.23049C26.5681 8.30268 27.2178 8.59147 27.5788 9.16905C27.8676 9.60223 28.012 10.3964 28.0842 11.5515C28.0842 11.9847 28.1564 12.7789 28.1564 13.7897C28.2286 14.656 28.3008 15.5224 28.4452 16.3165H25.6295V16.2443ZM25.6295 4.54844C25.6295 3.68208 25.4129 3.1045 25.0519 2.74352C24.6187 2.38253 24.0412 2.23814 23.1748 2.23814H21.4421V7.36412H22.7416C23.8246 7.36412 24.5465 7.14753 24.9797 6.78655C25.4129 6.35336 25.6295 5.5592 25.6295 4.54844Z" fill="#141515"/>
<path d="M42.524 10.1798V16.2444H40.0693V10.1798L35.8818 0.288818H38.6253L41.5132 7.8695L44.4733 0.288818H46.928L42.524 10.1798Z" fill="#141515"/>
<path d="M63.9667 12.2013C63.9667 15.0892 62.3783 16.5331 59.2739 16.5331C58.4075 16.5331 57.6855 16.4609 57.1079 16.2443C56.5304 16.0999 56.025 15.8111 55.664 15.378C55.303 15.017 55.0142 14.5116 54.8698 13.934C54.7254 13.3564 54.5811 12.6345 54.5811 11.7681V11.6237H57.1079V11.7681C57.1079 12.7067 57.2523 13.3564 57.4689 13.7896C57.7577 14.3672 58.4075 14.656 59.2739 14.656C60.7178 14.656 61.4398 13.934 61.4398 12.4179C61.4398 11.6237 61.151 10.9739 60.5734 10.4686C60.5012 10.3964 60.2846 10.1798 59.9236 9.96318C59.5626 9.74659 59.1295 9.4578 58.5519 9.09682C57.1801 8.23046 56.2416 7.58068 55.8806 7.1475C55.1586 6.35333 54.7255 5.34258 54.7255 4.11523C54.7255 2.74348 55.1586 1.66053 56.025 0.938561C56.8192 0.288788 57.9743 0 59.3461 0C62.2339 0 63.7501 1.29955 63.7501 3.97083V4.54841H61.3676V4.11523C61.3676 2.59909 60.7178 1.80492 59.3461 1.80492C58.6963 1.80492 58.1909 2.02152 57.8299 2.3825C57.4689 2.74348 57.3245 3.24886 57.3245 3.97083C57.3245 4.765 57.6855 5.48697 58.4075 6.06455C58.7685 6.28114 59.1295 6.56992 59.5626 6.78652C59.9236 7.00311 60.2846 7.29189 60.7178 7.50848C62.0173 8.30265 62.8115 8.95242 63.1725 9.31341C63.6779 9.96318 63.9667 10.9739 63.9667 12.2013Z" fill="#141515"/>
<path d="M77.6114 2.16594V16.2444H75.1567V2.16594H71.4746V0.288818H81.2934V2.16594H77.6114Z" fill="#141515"/>
<path d="M96.8161 16.2444L95.8053 12.4179H90.6793L89.6686 16.2444H87.2139L91.7623 0.288818H94.8667L99.343 16.2444H96.8161ZM93.2784 2.38253L91.2569 10.5408H95.3721L93.2784 2.38253Z" fill="#141515"/>
<path d="M107.718 16.2444V0.288818H110.172V14.3672H115.154V16.2444H107.718Z" fill="#141515"/>
</g>
<defs>
<clipPath id="clip0_1339_13861">
<rect width="115.515" height="36.2429" fill="white"/>
</clipPath>
</defs>
</svg>
