<svg width="140" height="54" viewBox="0 0 140 54" fill="none" xmlns="http://www.w3.org/2000/svg">
<g clipPath="url(#clip0_1339_13933)">
<path d="M11.2597 15.1228C11.1654 14.8402 11.0241 14.5575 10.7886 14.3691C10.553 14.1335 10.2703 13.9922 9.94055 13.945C9.46943 13.8508 9.04543 13.8037 8.57431 13.8037H3.86315C3.2507 13.8037 2.63825 13.8508 2.0258 13.9922C1.60179 14.0864 1.17779 14.2748 0.848009 14.5575C0.565339 14.7931 0.329781 15.1228 0.188446 15.4997C0.0471116 15.9708 0 16.442 0 16.9131V19.0802C0 19.5513 0.0471116 20.0224 0.188446 20.4936C0.329781 20.8705 0.518228 21.2002 0.848009 21.4358C1.17779 21.7185 1.60179 21.9069 2.0258 21.954C2.63825 22.0954 3.2507 22.1425 3.86315 22.0954H10.8357C11.0241 22.0954 11.1183 22.0011 11.1183 21.8127V20.5407C11.1183 20.3522 11.0241 20.258 10.8357 20.258H4.0516C3.58048 20.3051 3.06225 20.2109 2.63825 19.9282C2.35558 19.6455 2.21425 19.2687 2.26136 18.8918V18.5149H10.4117C10.6472 18.5149 10.8828 18.4678 11.1183 18.3264C11.3068 18.138 11.3539 17.9024 11.3539 17.6669V16.2064C11.401 15.8766 11.3539 15.4997 11.2597 15.1228ZM9.09254 16.3477V16.9602C9.09254 17.1486 8.99831 17.1957 8.80987 17.1957H2.30847V16.8189C2.26136 16.442 2.40269 16.0651 2.68536 15.7824C3.10937 15.5468 3.62759 15.4055 4.09871 15.4997H8.15031C8.43297 15.4526 8.71564 15.5468 8.90409 15.6882C9.04543 15.8766 9.13965 16.1122 9.09254 16.3477Z" fill="#141515"/>
<path d="M15.0754 10.7415C15.3109 10.7415 15.4523 10.8357 15.4523 11.0712V12.4846C15.4523 12.673 15.358 12.8144 15.1696 12.8144C15.1225 12.8144 15.1225 12.8144 15.0754 12.8144H13.4736C13.238 12.8144 13.0967 12.673 13.0967 12.4846V11.0712C13.0967 10.8357 13.238 10.7415 13.4736 10.7415H15.0754Z" fill="#141515"/>
<path d="M15.0756 13.8038C15.264 13.7567 15.4054 13.898 15.4054 14.0865C15.4054 14.1336 15.4054 14.1336 15.4054 14.1807V21.8128C15.4054 22.0483 15.264 22.1426 15.0285 22.1426H13.4267C13.1911 22.1426 13.0498 22.0483 13.0498 21.8128V14.1336C13.0498 13.9451 13.144 13.8038 13.3325 13.8038C13.3796 13.8038 13.3796 13.8038 13.4267 13.8038H15.0756Z" fill="#141515"/>
<path d="M29.1624 10.7886H27.5606C27.325 10.7886 27.1837 10.8828 27.1837 11.1184V13.8037H21.1063C20.4939 13.8037 19.8814 13.8508 19.269 13.9922C18.845 14.0864 18.421 14.2748 18.0912 14.5104C17.8085 14.7459 17.5729 15.0757 17.4316 15.4526C17.2903 15.9237 17.2432 16.3949 17.2432 16.866V19.0331C17.2432 19.5042 17.2903 19.9753 17.4316 20.4465C17.5729 20.8233 17.7614 21.1531 18.0912 21.3887C18.421 21.6714 18.845 21.8598 19.269 21.9069C19.8814 22.0482 20.4939 22.0954 21.1063 22.0954H25.629C26.2415 22.0954 26.8539 22.0482 27.4664 21.954C27.8904 21.8598 28.3144 21.6714 28.6442 21.4358C28.9268 21.2002 29.1624 20.8705 29.3037 20.4936C29.4451 20.0224 29.4922 19.5513 29.4922 19.0802V11.1184C29.5393 10.8828 29.398 10.7886 29.1624 10.7886ZM27.2308 18.6562C27.2308 18.9389 27.1837 19.1744 27.1366 19.4571C27.0895 19.6456 26.9953 19.834 26.8539 19.9753C26.7126 20.1167 26.5241 20.2109 26.2886 20.258C26.0059 20.3051 25.7232 20.3522 25.4406 20.3522H21.3419C21.0592 20.3522 20.7765 20.3522 20.4939 20.258C20.3054 20.2109 20.117 20.1167 19.9756 19.9753C19.8343 19.834 19.7401 19.6456 19.693 19.4571C19.6459 19.1744 19.5987 18.9389 19.5987 18.6562V17.3371C19.5987 17.0544 19.5987 16.8189 19.693 16.5362C19.7401 16.3477 19.8343 16.1593 19.9756 16.018C20.117 15.8766 20.3054 15.7824 20.4939 15.7353C20.7765 15.6882 21.0592 15.6411 21.3419 15.6411H27.1837V18.6562H27.2308Z" fill="#141515"/>
<path d="M43.4368 15.4997C43.2954 15.1228 43.107 14.7931 42.7772 14.5575C42.4474 14.2748 42.0234 14.0864 41.5994 14.0393C40.987 13.8979 40.3745 13.8508 39.7621 13.8508H35.1923C34.5798 13.8508 33.9674 13.8979 33.3549 14.0393C32.9309 14.1335 32.5069 14.3219 32.1771 14.6046C31.8944 14.8402 31.6589 15.17 31.5175 15.5468C31.3762 16.018 31.3291 16.4891 31.3291 16.9602V19.1273C31.3291 19.5984 31.3762 20.0696 31.5175 20.5407C31.6589 20.9176 31.8473 21.2473 32.13 21.4829C32.4598 21.7656 32.8838 21.954 33.3078 22.0011C33.9202 22.1425 34.5327 22.1896 35.1451 22.1896H39.715C40.3274 22.1896 40.9399 22.1425 41.5523 22.0011C41.9763 21.9069 42.4003 21.7185 42.7301 21.4829C43.0128 21.2473 43.2483 20.9176 43.3897 20.5407C43.531 20.0696 43.6252 19.5984 43.5781 19.1273V16.9602C43.6723 16.442 43.5781 15.9709 43.4368 15.4997ZM41.3639 18.7033C41.3639 18.986 41.3168 19.2216 41.2696 19.5042C41.2225 19.6927 41.1283 19.8811 40.987 20.0224C40.8456 20.1638 40.6572 20.258 40.4216 20.258C40.139 20.3051 39.8563 20.3522 39.5736 20.3522H35.4278C35.1451 20.3522 34.8625 20.3522 34.5798 20.258C34.3914 20.2109 34.2029 20.1167 34.0145 19.9753C33.8731 19.834 33.7789 19.6456 33.7318 19.4571C33.6847 19.1744 33.6376 18.9389 33.6376 18.6562V17.2429C33.6376 16.9602 33.6376 16.7246 33.7318 16.442C33.7789 16.2535 33.8731 16.0651 34.0145 15.9237C34.1558 15.7824 34.3442 15.6882 34.5327 15.6411C34.8154 15.594 35.098 15.5468 35.3807 15.5468H39.5736C39.8563 15.5468 40.139 15.594 40.4216 15.6411C40.8456 15.6882 41.1754 16.018 41.2696 16.442C41.3168 16.6775 41.3639 16.9602 41.3639 17.2429V18.7033Z" fill="#141515"/>
<path d="M55.7801 13.8508C55.9685 13.8508 56.0627 13.9451 56.0627 14.1335V15.3584C56.0627 15.5468 55.9685 15.6411 55.7801 15.6411H48.4778C48.2422 15.6411 48.0066 15.6882 47.7711 15.8295C47.6298 15.9709 47.5826 16.1593 47.5826 16.3477V16.4891C47.5826 16.6775 47.6298 16.8189 47.7711 16.9602C47.9595 17.1015 48.2422 17.1486 48.4778 17.1486H53.9427C54.6494 17.1015 55.3089 17.29 55.8743 17.6669C56.2983 18.0438 56.4867 18.6091 56.4396 19.1744V20.0224C56.4396 20.3051 56.3925 20.6349 56.2983 20.9176C56.2041 21.1531 56.0627 21.3887 55.8743 21.5771C55.6387 21.7656 55.4032 21.9069 55.0734 22.0011C54.6965 22.0954 54.2725 22.1425 53.8956 22.1425H45.6511C45.4626 22.1425 45.3684 22.0482 45.3684 21.8598V20.6349C45.3684 20.4465 45.4626 20.3522 45.6511 20.3522H53.2831C53.5187 20.3522 53.7543 20.3051 53.9898 20.2109C54.1311 20.0696 54.2254 19.8811 54.1783 19.6456V19.2216C54.1783 19.0331 54.1311 18.8918 53.9898 18.7504C53.8014 18.6091 53.5187 18.562 53.2831 18.6091H47.8653C47.1586 18.6562 46.4991 18.4678 45.9337 18.0909C45.5097 17.714 45.3213 17.1486 45.3684 16.5833V15.9237C45.3684 15.6411 45.4155 15.3584 45.5097 15.0757C45.604 14.8402 45.7453 14.6046 45.9337 14.4162C46.1693 14.2277 46.452 14.0864 46.7346 13.9922C47.1115 13.8979 47.5355 13.8508 47.9124 13.8508H55.7801Z" fill="#141515"/>
<path d="M83.529 12.8145L87.1095 23.603L75.8027 20.0225L83.529 12.8145Z" fill="#141515"/>
<path d="M71.6568 16.8188L74.3421 21.7656L67.2754 23.4616L71.6568 16.8188Z" fill="#141515"/>
<path d="M85.5547 0L104.776 21.2473H110.1L74.2479 53.4245L139.686 21.954L85.5547 0ZM57.9944 15.1699V14.0864H57.6175V13.8508H58.701V14.0864H58.3242V15.1699H57.9944ZM58.8424 15.1699V13.8508H59.2664L59.5019 14.7459L59.7375 13.8508H60.1615V15.1699H59.9259V14.1335L59.6433 15.1699H59.3606L59.0779 14.1335V15.1699H58.8424ZM12.1077 25.346C12.7201 25.346 13.3326 25.3931 13.945 25.5345C14.369 25.6287 14.793 25.8172 15.1228 26.0998C15.4055 26.3354 15.641 26.6652 15.7353 27.0421C15.8766 27.5132 15.9237 27.9843 15.9237 28.4554V33.355C15.9237 33.5906 15.7824 33.6848 15.5468 33.6848H13.945C13.7095 33.6848 13.5681 33.5906 13.5681 33.355V28.9736C13.5681 28.691 13.5681 28.4554 13.521 28.1727C13.4739 27.9843 13.4268 27.7958 13.2855 27.6545C13.1441 27.5132 13.0028 27.4189 12.8144 27.3718C12.5317 27.3247 12.249 27.2776 11.9663 27.2776H9.13965V33.355C9.13965 33.5906 8.99831 33.6848 8.76276 33.6848H7.16096C6.9254 33.6848 6.78407 33.5906 6.78407 33.355V27.2305H4.0516C3.76893 27.2305 3.48626 27.2305 3.20359 27.3247C3.01514 27.3718 2.8267 27.4661 2.68536 27.6074C2.54403 27.7487 2.4498 27.9372 2.40269 28.1256C2.35558 28.4083 2.30847 28.6438 2.30847 28.9265V33.3079C2.30847 33.5434 2.16713 33.6377 1.93158 33.6377H0.376893C0.141335 33.6377 0 33.5434 0 33.3079V28.4083C0 27.9372 0.0471116 27.4661 0.188446 26.9949C0.329781 26.618 0.518228 26.2883 0.848009 26.0527C1.17779 25.77 1.60179 25.5816 2.0258 25.4874C2.63825 25.346 3.2507 25.2989 3.86315 25.2989L12.1077 25.346ZM26.194 25.346C26.8065 25.346 27.4189 25.3931 28.0314 25.5345C28.4554 25.6287 28.8794 25.8172 29.2092 26.0998C29.4919 26.3354 29.7274 26.6652 29.8216 27.0421C29.963 27.5132 30.0101 27.9843 30.0101 28.4554V30.6225C30.0101 31.0936 29.963 31.5648 29.8216 32.0359C29.6803 32.4128 29.4919 32.7426 29.1621 32.9781C28.8323 33.2608 28.4083 33.4492 27.9843 33.4963C27.3718 33.6377 26.7594 33.6848 26.1469 33.6377H21.5771C20.9647 33.6377 20.3522 33.5906 19.7398 33.4492C19.3158 33.355 18.8917 33.1666 18.562 32.931C18.2793 32.6954 18.0437 32.3657 17.9024 31.9888C17.7611 31.5177 17.714 31.0465 17.714 30.5754V28.4083C17.714 27.9372 17.7611 27.4661 17.9024 26.9949C18.0437 26.618 18.2322 26.2883 18.562 26.0527C18.8917 25.77 19.3158 25.5816 19.7398 25.5345C20.3522 25.3931 20.9647 25.346 21.5771 25.346H26.194ZM20.0695 30.1985C20.0695 30.4812 20.0695 30.7168 20.1638 30.9994C20.2109 31.1879 20.3051 31.3763 20.4464 31.5177C20.5878 31.659 20.7762 31.7532 20.9647 31.8003C21.2473 31.8474 21.53 31.8945 21.8127 31.8945H25.9114C26.194 31.8945 26.5238 31.8945 26.8065 31.8003C26.9949 31.7532 27.1834 31.659 27.3718 31.5177C27.5132 31.3763 27.6074 31.1879 27.6545 30.9994C27.7016 30.7168 27.7487 30.4812 27.7487 30.1985V28.7852C27.7487 28.5025 27.7487 28.267 27.6545 27.9843C27.6074 27.7958 27.5132 27.6074 27.3718 27.4661C27.2305 27.3247 27.0421 27.2305 26.8065 27.1834C26.5238 27.1363 26.2412 27.0892 25.9585 27.0892H21.8127C21.53 27.0892 21.2473 27.0892 20.9647 27.1834C20.7762 27.2305 20.5878 27.3247 20.4464 27.4661C20.3051 27.6074 20.2109 27.7958 20.1638 27.9843C20.1166 28.2198 20.0695 28.5025 20.0695 28.7852V30.1985ZM40.3746 25.346C40.9871 25.346 41.5995 25.3931 42.212 25.5345C42.636 25.6287 43.06 25.8172 43.3898 26.0998C43.6724 26.3354 43.908 26.6652 44.0493 27.0421C44.1907 27.5132 44.2378 27.9843 44.2378 28.4554V33.355C44.2378 33.5906 44.0965 33.6848 43.8609 33.6848H42.2591C42.0235 33.6848 41.8822 33.5906 41.8822 33.355V28.9736C41.8822 28.691 41.8822 28.4554 41.8351 28.1727C41.788 27.9843 41.6938 27.7958 41.5995 27.6545C41.4582 27.5132 41.2698 27.4189 41.0813 27.3718C40.7986 27.3247 40.516 27.2776 40.2333 27.2776H35.9461C35.6635 27.2776 35.3808 27.2776 35.0981 27.3718C34.9097 27.4189 34.7212 27.5132 34.5328 27.6545C34.3915 27.7958 34.2972 27.9843 34.2501 28.1727C34.203 28.4554 34.1559 28.691 34.1559 28.9736V33.355C34.1559 33.5906 34.0146 33.6848 33.779 33.6848H32.1772C31.9417 33.6848 31.8003 33.5906 31.8003 33.355V28.4083C31.8003 27.9372 31.8474 27.4661 31.9888 26.9949C32.1301 26.618 32.3186 26.2883 32.6483 26.0527C32.9781 25.77 33.4021 25.5816 33.8261 25.5345C34.4386 25.3931 35.051 25.346 35.6635 25.346H40.3746ZM47.3 25.346V23.3673C47.3 23.1318 47.4414 23.0376 47.6769 23.0376H49.2787C49.5143 23.0376 49.6556 23.1318 49.6556 23.3673V25.346H52.4823C52.6708 25.346 52.765 25.4403 52.765 25.6287V26.8536C52.765 27.0421 52.6708 27.1363 52.4823 27.1363H49.6556V30.6225C49.6085 30.9523 49.7027 31.2821 49.9383 31.5648C50.2681 31.8003 50.645 31.8945 51.0219 31.8474H52.5765C52.765 31.8474 52.8592 31.9417 52.8592 32.1301V33.355C52.8592 33.5435 52.765 33.6377 52.5765 33.6377H50.645C50.1267 33.6377 49.5614 33.5906 49.0432 33.4492C48.6663 33.355 48.3365 33.1666 48.0538 32.931C47.7712 32.6954 47.6298 32.3657 47.5356 31.9888C47.4414 31.5177 47.3943 31.0936 47.3943 30.6225V27.0892H45.8396C45.6511 27.0892 45.5569 26.9949 45.5569 26.8065V25.5816C45.5569 25.3931 45.6511 25.2989 45.8396 25.2989L47.3 25.346ZM62.47 25.3931C62.6584 25.3931 62.7526 25.4874 62.7526 25.6758V26.9478C62.7526 27.1363 62.6584 27.2305 62.47 27.2305H58.1828C57.9001 27.2305 57.6175 27.2305 57.3348 27.3247C57.1464 27.3718 56.9579 27.4661 56.7695 27.6074C56.6281 27.7487 56.5339 27.9372 56.4868 28.1256C56.4397 28.4083 56.3926 28.6438 56.3926 28.9265V33.4021C56.3926 33.6377 56.2512 33.7319 56.0157 33.7319H54.4139C54.1783 33.7319 54.037 33.6377 54.037 33.4021V28.4554C54.037 27.9843 54.0841 27.5132 54.2254 27.0421C54.3668 26.6652 54.5552 26.3354 54.885 26.0998C55.2148 25.8172 55.6388 25.6287 56.0628 25.5345C56.6752 25.3931 57.2877 25.346 57.9001 25.346L62.47 25.3931ZM72.2692 25.3931C72.7403 25.3931 73.1643 25.4403 73.6354 25.5345C73.9652 25.5816 74.2479 25.7229 74.4834 25.9585C74.719 26.1469 74.8603 26.4296 74.9074 26.7123C75.0017 27.0892 75.0488 27.4661 75.0488 27.8901V29.3034C75.0959 29.539 75.0017 29.7745 74.8132 29.963C74.6248 30.1043 74.3421 30.1514 74.1065 30.1514H65.9562V30.5283C65.9091 30.9052 66.0505 31.2821 66.3331 31.5648C66.7571 31.8474 67.2754 31.9417 67.7465 31.8945H74.4834C74.6719 31.8945 74.7661 31.9888 74.7661 32.1772V33.4492C74.7661 33.6377 74.6719 33.7319 74.4834 33.7319H67.5109C66.8985 33.7319 66.286 33.6848 65.6736 33.5434C65.2495 33.4492 64.8255 33.2608 64.4958 33.0252C64.2131 32.7897 63.9775 32.4599 63.8362 32.083C63.6949 31.6119 63.6478 31.1408 63.6478 30.6696V28.5025C63.6478 28.0314 63.6949 27.5603 63.8362 27.0892C63.9775 26.7123 64.166 26.3825 64.4958 26.1469C64.8255 25.8643 65.2495 25.6758 65.6736 25.5816C66.286 25.4403 66.8985 25.3931 67.5109 25.3931H72.2692ZM65.9562 28.8323H72.5047C72.6932 28.8323 72.7874 28.7381 72.7874 28.5967V27.9843C72.7874 27.7487 72.7403 27.5132 72.599 27.3247C72.3634 27.1834 72.0807 27.0892 71.8452 27.1363H67.7936C67.3225 27.0892 66.8042 27.1834 66.3802 27.4661C66.0976 27.7487 65.9562 28.1256 66.0033 28.5025V28.8323H65.9562Z" fill="#141515"/>
<path d="M83.9527 25.3931C84.5651 25.3931 85.1776 25.4402 85.79 25.5815C86.214 25.6757 86.638 25.8642 86.9678 26.1469C87.2505 26.3824 87.486 26.7122 87.6274 27.0891C87.7687 27.5602 87.8158 28.0313 87.8158 28.5024V32.5069C87.8158 32.6954 87.8158 32.9309 87.7687 33.1194C87.7216 33.402 87.486 33.6376 87.2034 33.6847C87.0149 33.7318 86.8265 33.7318 86.638 33.7318H78.9588C78.5819 33.7318 78.1579 33.6847 77.781 33.5905C77.4984 33.5434 77.2157 33.402 77.0273 33.2136C76.8388 33.0251 76.6975 32.7896 76.6033 32.554C76.509 32.2243 76.4619 31.8945 76.4619 31.5647V30.8109C76.4619 30.5282 76.509 30.2456 76.6033 29.9629C76.6975 29.7273 76.8388 29.4918 77.0273 29.3504C77.2628 29.162 77.5455 29.0207 77.8281 28.9736C78.205 28.8793 78.629 28.8322 79.0059 28.8322H85.5545V28.5495C85.5545 28.3611 85.5544 28.1255 85.4602 27.9371C85.4131 27.7958 85.3189 27.6073 85.1776 27.5131C85.0362 27.3718 84.8478 27.3246 84.6593 27.2775C84.3767 27.2304 84.094 27.1833 83.7642 27.1833H76.9801C76.7917 27.1833 76.6975 27.0891 76.6975 26.9006V25.6286C76.6975 25.4402 76.7917 25.346 76.9801 25.346L83.9527 25.3931ZM84.9891 32.0358C85.1304 32.0358 85.2718 31.9887 85.366 31.9416C85.4602 31.8474 85.5073 31.706 85.4602 31.5647V30.2456H79.5242C79.2886 30.2456 79.0059 30.2927 78.8175 30.434C78.6762 30.5753 78.5819 30.7638 78.629 30.9994V31.3291C78.629 31.5647 78.6762 31.7531 78.8175 31.9416C79.0059 32.0829 79.2886 32.1771 79.5242 32.13L84.9891 32.0358ZM91.4905 22.3779C91.7261 22.3779 91.8674 22.4722 91.8674 22.7077V33.3549C91.8674 33.5905 91.7261 33.6847 91.4905 33.6847H89.8887C89.6532 33.6847 89.5118 33.5905 89.5118 33.3549V22.7077C89.5118 22.4722 89.6532 22.3779 89.8887 22.3779H91.4905Z" fill="#141515"/>
</g>
<defs>
<clipPath id="clip0_1339_13933">
<rect width="139.639" height="53.4245" fill="white"/>
</clipPath>
</defs>
</svg>
