<svg width="152" height="16" viewBox="0 0 152 16" fill="none" xmlns="http://www.w3.org/2000/svg">
<g clip-path="url(#clip0_1339_13914)">
<path d="M110.957 5.47656H105.963V8.09015H110.957V5.47656Z" fill="#141515"/>
<path d="M92.7862 5.47656H87.792V8.09015H92.7862V5.47656Z" fill="#141515"/>
<path d="M28.3197 0H20.3578C17.8654 0 17.0693 0.674412 17.0693 3.29128V10.6295C17.0693 13.2464 17.8654 13.9208 20.3578 13.9208H22.8765V15.8262H25.8038V13.9203H28.3197C30.8121 13.9203 31.6082 13.2459 31.6082 10.629V3.29128C31.6082 0.674412 30.8117 0 28.3197 0ZM28.525 11.3035H25.8034V9.80998H22.876V11.3035H20.1521V2.38909H28.525V11.3035Z" fill="#141515"/>
<path d="M44.4744 11.3035H37.1291V0H34.0459V10.629C34.0459 13.2459 34.8424 13.9203 37.3344 13.9203H44.2692C46.7616 13.9203 47.5581 13.2459 47.5581 10.629V0H44.4749L44.4744 11.3035Z" fill="#141515"/>
<path d="M55.3945 0L48.3311 13.9203H51.2335L52.6852 10.8718H60.5954L62.095 13.9203H65.3609L58.2007 0H55.3945ZM53.9194 8.363L56.7011 2.69765L59.3861 8.363H53.9194Z" fill="#141515"/>
<path d="M76.5402 8.65981C78.57 8.65981 79.5206 7.90462 79.5206 5.96216V2.69812C79.5206 0.755661 78.57 0 76.5402 0H66.625V13.9203H69.6566V8.65981H71.7033L76.4885 13.9203H80.6689L75.3515 8.65981H76.5402ZM69.657 6.28575V2.40083H75.1533C76.1039 2.40083 76.5407 2.58963 76.5407 3.50685V5.17973C76.5407 6.09695 76.1039 6.28575 75.1533 6.28575H69.657Z" fill="#141515"/>
<path d="M103.413 2.37406H112.095V0H100.33V13.9203H112.223V11.3035H103.413V2.37406Z" fill="#141515"/>
<path d="M124.793 7.31099C124.793 7.74259 124.844 8.5518 124.921 9.71182C124.459 9.14543 116.6 0 116.6 0H114.493V13.9203H117.268V6.39377C117.268 5.9894 117.242 5.26051 117.14 4.18173C117.5 4.61334 125.46 13.9203 125.46 13.9203H127.567V0H124.793V7.31099Z" fill="#141515"/>
<path d="M133.201 0H130.118V13.9203H133.201V0Z" fill="#141515"/>
<path d="M144.451 6.39377L149.949 0H146.577L142.741 4.72089L138.709 0H134.824L140.908 6.77136L134.921 13.9203H138.392L142.643 8.52503L147.261 13.9203H151.244L144.451 6.39377Z" fill="#141515"/>
<path d="M85.2424 2.37406H93.9234V0H82.1592V13.9203H94.052V11.3035H85.2424V2.37406Z" fill="#141515"/>
<path d="M0 11.3035C0 13.3502 1.0196 13.9203 3.2833 13.9203H11.5519C14.0443 13.9203 14.8662 13.2459 14.8662 10.629V8.71382C14.8662 6.09695 14.0443 5.42254 11.5519 5.42254H3.27907V2.39097H11.9633V3.67029L14.6868 3.66935V3.04848C14.6868 0.647643 13.7621 0 11.3979 0H3.86989C1.37747 0 0.581423 0.674412 0.581423 3.29128V4.82891C0.581423 7.44578 1.37794 8.12019 3.86989 8.12019H12.1432V11.303H0V11.3035Z" fill="#141515"/>
</g>
<defs>
<clipPath id="clip0_1339_13914">
<rect width="151.244" height="15.8257" fill="white"/>
</clipPath>
</defs>
</svg>
