<svg width="91" height="83" viewBox="0 0 91 83" fill="none" xmlns="http://www.w3.org/2000/svg">
<g clipPath="url(#clip0_1339_13949)">
<path d="M0 65.7922V75.8851C0 79.9832 2.7936 82.5953 6.86224 82.5953C11.1419 82.5953 13.7615 79.8407 13.7615 75.6087V65.7922H10.1391V75.4243C10.1391 77.7319 8.97704 79.1629 6.90085 79.1629C4.62546 79.1629 3.62241 77.5172 3.62241 75.6087V65.7922H0ZM15.5226 65.9316V82.4307H21.2921C24.4875 82.4307 27.2027 80.8009 27.2027 77.5685C27.2027 74.1945 24.2503 73.4466 24.2503 73.4466C24.2503 73.4466 26.4365 72.8393 26.4365 69.9527C26.4365 67.0679 23.6732 65.9316 21.2921 65.9316H15.5226ZM19.1721 69.0655H20.9235C22.1389 69.0655 22.9166 69.7057 22.9166 70.8197C22.9166 71.8161 22.2568 72.5681 21.0156 72.5681H19.1722V69.0655H19.1721ZM19.1721 75.149H21.1077C22.9279 75.149 23.5591 76.0839 23.5591 77.1998C23.5591 78.4981 22.7427 79.2593 21.2921 79.2593H19.1722V75.1491L19.1721 75.149ZM28.5738 65.9304H32.2147V82.4295H28.5738V65.9304ZM68.3007 82.4295H64.6598V65.9304H76.0893V69.3409H68.3007V73.12H75.398V75.8851H68.3007V82.4295ZM77.4259 65.9304V69.3409H82.1267V82.4295H85.8137V69.3409H90.4223V65.9304H77.4259ZM36.3711 76.9434L33.4788 79.0581C33.4788 79.0581 34.4782 82.7134 39.4887 82.7134C42.8253 82.7134 45.2805 80.7663 45.2805 77.3431C45.2805 71.8263 37.5666 72.9967 37.5666 70.1596C37.5666 69.4129 38.2305 68.7534 39.456 68.7534C41.4221 68.7534 42.1693 70.6821 42.1693 70.6821L45.0625 68.6517C45.0625 68.6517 43.9325 65.6395 39.6013 65.6395C36.0418 65.6395 34.151 67.9231 34.151 70.2795C34.151 75.9015 41.6403 74.6812 41.6403 77.6317C41.6403 78.6273 40.8557 79.359 39.6337 79.3505C37.2127 79.3505 36.3711 76.9434 36.3711 76.9434ZM54.682 65.6319C50.3944 65.6319 48.4834 67.9592 48.4834 67.9592L49.0364 68.5123C49.0364 68.5123 46.2625 70.4826 46.2625 74.7138C46.2625 79.5826 50.0175 82.7098 54.7021 82.7098C60.1454 82.7098 63.2339 78.6934 63.2339 74.178C63.2339 69.363 59.7078 65.6319 54.682 65.6319ZM54.7597 69.0567C57.6668 69.0567 59.5528 71.2786 59.5528 74.1637C59.5528 77.0187 57.6893 79.3023 54.7597 79.3023C51.8654 79.3023 49.9638 77.2812 49.9638 74.5986C49.9638 72.1571 51.6172 71.0931 51.6172 71.0931L51.0181 70.4939C51.0181 70.4939 52.2929 69.0567 54.7597 69.0567ZM43.5398 0C24.8406 0 16.7694 16.6442 16.7694 16.6442L19.1452 18.3451C19.1452 18.3451 16.1554 24.0307 16.2381 31.3234C16.2381 46.2105 28.0887 60.2343 45.5337 60.2343C61.3818 60.2343 74.4733 47.3349 74.4733 31.36C74.4733 10.5251 58.3165 0 43.5399 0H43.5398ZM43.702 5.07884C58.3116 5.07884 69.6483 16.8518 69.6483 30.5384C69.6483 45.0471 58.7362 55.1371 46.0203 55.1371C36.6618 55.1371 28.2195 48.0104 28.2195 38.2391C28.2195 32.5954 31.2192 28.6608 34.5806 26.5638L35.0725 27.0976C34.1526 27.8173 31.5296 32.0307 31.5296 36.172C31.5296 43.8599 37.5584 49.1843 45.1543 49.1843C54.83 49.1843 61.283 40.9317 61.283 31.3496C61.283 20.2009 51.4421 10.7359 39.5992 10.7359C33.0488 10.7359 27.4893 13.5529 24.2947 16.0398L23.7975 15.5898C27.9769 9.14567 35.2146 5.07884 43.702 5.07884ZM39.3427 15.7442C46.9002 15.7442 54.2787 20.7439 56.1204 27.8407L55.4506 28.0945C52.1437 23.7276 46.7252 20.1087 40.3265 20.1087C28.5525 20.1087 22.369 30.8077 23.2768 39.7436L22.5834 39.9975C22.5834 39.9975 21.283 37.128 21.283 33.7254C21.283 23.8721 29.3747 15.7442 39.3427 15.7442ZM44.3379 28.1101C47.9159 28.1101 50.7774 31.0102 50.7774 34.4529C50.7774 37.3017 48.9483 38.9901 48.9483 38.9901L51.1148 40.505C51.1148 40.505 48.9665 43.8779 44.5812 43.8779C40.3864 43.8779 36.6765 40.4921 36.6765 35.9391C36.6765 31.2476 40.7118 28.1101 44.3379 28.1101Z" fill="#141515"/>
</g>
<defs>
<clipPath id="clip0_1339_13949">
<rect width="90.4223" height="82.7134" fill="white"/>
</clipPath>
</defs>
</svg>
