<svg width="116" height="61" viewBox="0 0 116 61" fill="none" xmlns="http://www.w3.org/2000/svg">
<g clipPath="url(#clip0_1339_13890)">
<path d="M29.0923 53.6987C28.0351 53.6987 27.2305 54.3054 27.2305 55.4564V58.8078C27.2305 60.0059 27.9788 60.5673 29.0837 60.5673C30.1222 60.5673 30.9455 59.9872 30.9455 58.7796V55.419C30.9455 54.2414 30.1222 53.6987 29.0923 53.6987ZM29.7663 58.8252C29.7663 59.2193 29.5325 59.5274 29.0923 59.5274C28.6527 59.5274 28.4002 59.238 28.4002 58.836V55.419C28.4002 55.017 28.6434 54.7276 29.0836 54.7276C29.4949 54.7276 29.7662 54.9795 29.7662 55.3909V58.8252H29.7663ZM33.0466 53.8002H35.8624V55.0233L35.6811 54.8699C35.6302 54.8262 35.5654 54.8026 35.4981 54.8026H34.2258V56.5621H35.6358L35.4786 57.5819H34.2259V60.4734H33.0467L33.0466 53.8002ZM40.487 53.8002H44.1927V55.0233L44.0121 54.8699C43.9604 54.8262 43.8956 54.8026 43.8283 54.8026H42.9384V60.4734H41.7592V54.8027H40.8506C40.7834 54.8027 40.7185 54.8263 40.6676 54.87L40.487 55.0234V53.8002ZM68.5764 53.6987C67.5193 53.6987 66.7138 54.3054 66.7138 55.4564V58.8078C66.7138 60.0059 67.463 60.5673 68.5672 60.5673C69.6056 60.5673 70.4295 59.9872 70.4295 58.7796V55.419C70.4297 54.2414 69.6056 53.6987 68.5764 53.6987ZM69.2505 58.8252C69.2505 59.2193 69.016 59.5274 68.5764 59.5274C68.137 59.5274 67.8836 59.238 67.8836 58.836V55.419C67.8836 55.017 68.1275 54.7276 68.5672 54.7276C68.9783 54.7276 69.2505 54.9795 69.2505 55.3909V58.8252ZM64.4852 55.5848V55.874L63.4186 56.2792V55.3643C63.4186 54.9702 63.1763 54.7182 62.7727 54.7182C62.3144 54.7182 62.0986 54.9984 62.0986 55.4001V58.8252C62.0986 59.2848 62.3599 59.5274 62.7821 59.5274C63.1763 59.5274 63.4186 59.2756 63.4186 58.9002V58.4062L64.4852 57.9839V58.9661C64.4852 59.9684 63.7643 60.5675 62.7635 60.5675C61.6875 60.5675 60.9195 60.014 60.9195 58.8925V55.3737C60.9195 54.3055 61.7248 53.6989 62.7727 53.6989C63.7549 53.6987 64.4915 54.1709 64.4852 55.5848ZM55.0463 59.3945L55.2269 59.2412V60.4736H52.4024V53.8004H55.2182L55.2175 55.0234L55.0369 54.87C54.986 54.8263 54.9211 54.8027 54.8539 54.8027H53.5816V56.5246H54.8343L54.7013 57.5352H53.5816V59.4618H54.7069H54.8632C54.9305 59.4617 54.9955 59.4382 55.0463 59.3945ZM76.7447 60.1264L76.7119 59.9527L75.5624 53.7908H74.0204L72.788 60.1264C72.7771 60.1824 72.7506 60.2343 72.7098 60.2748L72.5114 60.4734H73.7702L73.9312 59.5555H75.5107L75.6702 60.4734H77.0217L76.8244 60.2764C76.7823 60.2359 76.7558 60.1825 76.7447 60.1264ZM74.1097 58.5484L74.7117 55.1297H74.7382L75.3357 58.5484H74.1097ZM49.8423 54.1646V60.1091C49.8431 60.1764 49.8665 60.2419 49.9095 60.292L50.0636 60.4734H48.6639V57.6287H47.3815V60.4734H45.9817L46.1351 60.292C46.1781 60.2419 46.2023 60.1764 46.2023 60.1091V54.1646C46.2023 54.0973 46.178 54.0333 46.1351 53.9817L45.9817 53.8002H47.3815V56.5527H48.6639V53.8002H50.0636L49.9095 53.9817C49.8665 54.0334 49.8431 54.0973 49.8423 54.1646ZM84.3533 53.8002H88.0598V55.0233L87.8798 54.8699C87.8283 54.8262 87.7609 54.8026 87.6938 54.8026H86.8054V60.4734H85.6263V54.8027H84.7176C84.6503 54.8027 84.5863 54.8263 84.5348 54.87L84.3533 55.0234V53.8002ZM81.385 56.936C82.0402 57.5537 82.4218 58.1153 82.4218 58.8534C82.4218 59.8182 81.7368 60.5674 80.5794 60.5674C79.8273 60.5674 79.2766 60.2609 78.9701 59.7197C78.8139 59.443 78.7998 59.0926 78.7872 58.7186C78.7856 58.7141 78.7856 58.6844 78.7856 58.6405L79.8975 58.248C79.8975 58.3245 79.9164 58.6686 79.9164 58.6686C79.9475 59.1645 80.0758 59.6118 80.5888 59.6118C81.0424 59.6118 81.1831 59.2474 81.1831 58.9096C81.1831 58.5358 80.9218 58.2277 80.5183 57.843L79.8037 57.1517C79.2095 56.5792 78.8074 56.1211 78.8074 55.3548C78.8074 54.4555 79.4111 53.6892 80.6201 53.6892C81.4785 53.6892 82.256 54.1162 82.2949 55.4298C82.2965 55.458 82.2965 55.4846 82.2965 55.5127L81.2455 55.8834C81.241 55.7256 81.2144 55.4799 81.1939 55.347C81.1831 55.286 81.1705 55.2249 81.1597 55.1845C81.0718 54.8546 80.9016 54.6433 80.5591 54.6433C80.1868 54.6433 79.985 54.9046 79.985 55.2705C79.985 55.6348 80.368 55.9819 80.72 56.3089L81.385 56.936Z" fill="#141515"/>
<path d="M26.8649 5.18589L32.7132 4.19751V48.0325H26.8649V5.18589ZM99.4925 14.5146V40.3286C99.4925 45.4582 96.3334 48.0325 92.1686 48.0325H84.8464V6.41515C84.8464 6.09922 84.7181 5.80992 84.5023 5.57378L83.4466 4.37739L92.2749 5.87253C96.3317 6.55121 99.4925 9.7307 99.4925 14.5146ZM93.6449 14.3614C93.6449 13.1227 93.2071 12.1235 91.6948 11.8669L90.6406 11.6887V41.4467H91.6948C93.2229 41.4875 93.6449 40.3459 93.6449 38.9884V14.3614ZM46.105 41.4672L40.8533 41.6564L48.995 1.44498L34.8933 3.82854V11.4088L35.8832 10.1483C36.0607 9.92314 36.3126 9.7714 36.5917 9.72447L41.7213 8.93787L33.8509 48.0327H47.1114L48.031 39.8736L46.9581 41.0809C46.7399 41.3265 46.4303 41.4672 46.105 41.4672ZM19.0196 7.33781C19.3723 7.57245 19.5646 7.97278 19.5325 8.40125L18.215 30.343L18.0508 30.3539L15.3709 7.1283L10.522 7.94776L8.03147 31.028L7.86728 31.039L6.02969 10.569C6.00155 10.2171 6.15871 9.89178 6.37537 9.62589L7.36848 8.48116L0 9.72597L4.51886 48.0326H10.6087L12.9022 28.3475L13.1212 28.3241L15.4796 48.0326H21.9925L25.466 5.42215L18.0335 6.67792L19.0196 7.33781ZM80.713 32.3918L82.99 48.0325H77.1253L75.5066 35.4148C75.3752 35.4427 75.2471 35.4741 75.1141 35.4977L73.6392 35.751V48.0325H67.7918V36.7535V21.568V3.5329C67.7918 3.21697 67.6777 2.93863 67.4493 2.69303L66.3874 1.49503L75.4815 3.03076C79.5384 3.70955 82.7648 6.89677 82.7648 11.6808V18.9985V21.5335V26.4802C82.7648 28.9089 81.978 30.8935 80.713 32.3918ZM76.7342 11.8419C76.7342 10.6033 76.298 9.60548 74.7858 9.34905L73.6393 9.15361V29.4204C73.6393 29.4204 74.226 29.3343 74.8467 29.2217C76.3418 28.9527 76.7343 27.7751 76.7343 26.4176L76.7342 11.8419ZM111.616 28.5007L109.667 24.5471C108.718 22.658 106.821 18.5088 106.821 16.0427C106.821 14.5631 107.071 14.0736 108.232 14.241C109.495 14.424 109.719 16.7027 109.772 19.7397L109.778 20.9252L115.085 19.2423C114.945 12.4707 113.041 9.29589 108.244 8.49834C103.081 7.64129 101.131 11.2993 101.131 15.7862C101.131 20.0478 102.87 24.2015 104.503 27.5719L107.138 32.939C108.426 35.5133 109.24 37.5025 109.527 39.1229C109.749 40.3834 109.403 42.4494 108.349 42.4258C106.979 42.3946 106.505 40.6929 106.505 36.0294H106.499L100.989 37.7871C101 45.5505 104.042 48.3718 108.244 48.3718C113.091 48.3718 115.304 44.4586 115.304 40.3364C115.304 36.1061 113.302 31.8946 111.616 28.5007ZM57.5466 0L53.9379 0.609956L48.6449 48.0326H54.6033L57.4371 14.2646H57.6561L60.4899 48.0326H66.5549L61.156 0.609956L57.5466 0Z" fill="#141515"/>
</g>
<defs>
<clipPath id="clip0_1339_13890">
<rect width="115.304" height="60.5674" fill="white"/>
</clipPath>
</defs>
</svg>
